<svg xmlns="http://www.w3.org/2000/svg" viewBox="0 0 380 120" width="57">
          <g fill="none">
            <path d="M103 1v25.2H67.7V118H37V26.2H2V1h101M351.2 58.5h26.5v46.4C365.1 113.6 345.2 120 328.8 120 293 120 266 94.1 266 59.8 266 25.5 293.6 0 330.8 0c17.6 0 36.2 6.7 48.2 17.5l-17.4 21.5c-8.4-7.9-20.3-12.9-31-12.9-18.9 0-33.1 14.6-33.1 33.8 0 19.3 14.4 34 33.5 34 5.9 0 13.2-2 20.3-5.5V58.5M162.7 1v47.7h47.5V1H241v117h-30.7V73.1h-47.5V118H132V1h30.7" fill="#424242"></path>
          </g>
        </svg>
